# xmcd
#
# Track frame offsets:
# 150
# 18446
# 40819
# 58144
# 78952
# 92956
# 107753
# 123387
# 140815
# 161486
# 175609
# 194454
# 210413
# 224160
# 240022
#
# Disc length: 3479 seconds
#
#
# Revision: 8
# Processed by: cddbd v1.5.1PL2 Copyright (c) Steve Scherf et al.
# Submitted via: FreeRIP 2.945 
#
DISCID=cf0d950f
DTITLE=Daniel-em qualquer lugar do mundo - Em Qualquer Lugar do Mundo
DYEAR=2004
DGENRE=Rock
TTITLE0=Em Qualquer Lugar do Mundo
TTITLE1=A chama do Amor
TTITLE2=Correnteza e Emoção
TTITLE3=Querida
TTITLE4=Direto do Coração
TTITLE5=Jogado na Rua
TTITLE6=Memórias de Uma Paixão
TTITLE7=Boêmio Apaixonado
TTITLE8=Os Amantes
TTITLE9=Machuca Eu
TTITLE10=Bem Simplesinho
TTITLE11=Sombra Boa e Água Fresca
TTITLE12=Vou de Fusca
TTITLE13=Um Homem Que Chora à Toa
TTITLE14=Meu Pai
EXTD=
EXTT0=
EXTT1=
EXTT2=
EXTT3=
EXTT4=
EXTT5=
EXTT6=
EXTT7=
EXTT8=
EXTT9=
EXTT10=
EXTT11=
EXTT12=
EXTT13=
EXTT14=
PLAYORDER=
